<svg xmlns="http://www.w3.org/2000/svg" xmlns:xlink="http://www.w3.org/1999/xlink" width="285.016" height="345.334" viewBox="0 0 285.016 345.334">
  <defs>
    <linearGradient id="linear-gradient" x1="0.5" x2="0.5" y2="1" gradientUnits="objectBoundingBox">
      <stop offset="0" stop-color="#ffae57"/>
      <stop offset="0.954" stop-color="#bb7428"/>
      <stop offset="1" stop-color="#80572c"/>
    </linearGradient>
    <filter id="Path_19" x="0" y="0" width="285.016" height="345.334" filterUnits="userSpaceOnUse">
      <feOffset dy="3" input="SourceAlpha"/>
      <feGaussianBlur stdDeviation="3" result="blur"/>
      <feFlood flood-opacity="0.161"/>
      <feComposite operator="in" in2="blur"/>
      <feComposite in="SourceGraphic"/>
    </filter>
    <filter id="Path_21" x="70" y="92.922" width="144.791" height="160.453" filterUnits="userSpaceOnUse">
      <feOffset dy="3" input="SourceAlpha"/>
      <feGaussianBlur stdDeviation="3" result="blur-2"/>
      <feFlood flood-opacity="0.161"/>
      <feComposite operator="in" in2="blur-2"/>
      <feComposite in="SourceGraphic"/>
    </filter>
    <filter id="JAk" x="106.791" y="149.923" width="72" height="62" filterUnits="userSpaceOnUse">
      <feOffset dy="3" input="SourceAlpha"/>
      <feGaussianBlur stdDeviation="3" result="blur-3"/>
      <feFlood flood-opacity="0.161"/>
      <feComposite operator="in" in2="blur-3"/>
      <feComposite in="SourceGraphic"/>
    </filter>
  </defs>
  <g id="Josh_logo" transform="translate(546.791 -3547.077)">
    <g transform="matrix(1, 0, 0, 1, -546.79, 3547.08)" filter="url(#Path_19)">
      <path id="Path_19-2" data-name="Path 19" d="M-706.385,3768.575-839.111,3856.7v145.482l132.726,93.724,134.29-93.724V3856.7Z" transform="translate(848.11 -3762.57)" fill="url(#linear-gradient)"/>
    </g>
    <g transform="matrix(1, 0, 0, 1, -546.79, 3547.08)" filter="url(#Path_21)">
      <path id="Path_21-2" data-name="Path 21" d="M-776.087,3768.575l-63.024,38.353v63.313l63.024,40.788,63.767-40.788v-63.312Z" transform="translate(918.11 -3669.65)" fill="#36213e"/>
    </g>
    <g transform="matrix(1, 0, 0, 1, -546.79, 3547.08)" filter="url(#JAk)">
      <text id="JAk-2" data-name="JAk" transform="translate(115.79 185.92)" fill="#fff" font-size="35" font-family="RageItalic, Rage"><tspan x="0" y="0">JAk</tspan></text>
    </g>
    <line id="Line_17" data-name="Line 17" y2="67" transform="translate(-473.5 3679.5)" fill="none" stroke="#36213e" stroke-width="4"/>
    <line id="Line_19" data-name="Line 19" y1="39" x2="65" transform="translate(-474.5 3641.5)" fill="none" stroke="#36213e" stroke-width="4"/>
  </g>
</svg>
